<?xml version="1.0" encoding="UTF-8"?>
<svg id="Layer_1" xmlns="http://www.w3.org/2000/svg" xmlns:xlink="http://www.w3.org/1999/xlink" viewBox="0 0 281 281">
  <defs>
    <style>
      .cls-1 {
        fill: url(#radial-gradient-2);
      }

      .cls-2 {
        fill: url(#radial-gradient);
      }

      .cls-3 {
        fill: #231f20;
        stroke: #231f20;
        stroke-miterlimit: 10;
      }
    </style>
    <radialGradient id="radial-gradient" cx="140.5" cy="141" fx="140.5" fy="141" r="111.32" gradientUnits="userSpaceOnUse">
      <stop offset="0" stop-color="#42b6e9"/>
      <stop offset="1" stop-color="#371d6e"/>
    </radialGradient>
    <radialGradient id="radial-gradient-2" r="63.01" xlink:href="#radial-gradient"/>
  </defs>
  <rect class="cls-3" x=".5" y=".5" width="280" height="280" rx="70.21" ry="70.21"/>
  <path class="cls-2" d="M140.5,22l-103.06,59.5v119l103.06,59.5,103.06-59.5v-119l-103.06-59.5ZM225,189.79l-84.5,48.79-84.5-48.79v-97.58l84.5-48.79,84.5,48.79v97.58Z"/>
  <path class="cls-1" d="M218.95,166.58c0,6.66.2,10.78.78,15.19h-19.3c.59-4.12.78-8.43.78-15.19v-21.27c0-5.19.39-13.23.98-19.4q-.49,1.37-1.57,4.9c-.29.78-3.23,9.9-3.33,10.39l-9.02,26.07c-2.64,7.44-3.72,11.07-4.21,14.5h-17.05c-.49-3.14-1.77-7.45-4.22-14.41l-9.5-26.85c-1.26-3.48-2.23-6.95-4.31-14.35v1.29c.05.82.12,2.1.29,5.02.19,3.04.49,10.39.49,12.74v21.37c0,6.96.19,10.68.78,15.19h-20.08c.59-4.51.78-8.23.78-15.19v-21.37c0-2.35.3-9.7.49-12.74.17-2.92.24-4.2.29-5.02v-1.25c-2.08,7.37-3.05,10.84-4.3,14.31l-9.51,26.85c-2.45,6.96-3.72,11.27-4.22,14.41h-17.05c-.49-3.43-1.57-7.06-4.21-14.5l-9.02-26.07c-.1-.49-3.04-9.61-3.33-10.39q-1.08-3.53-1.57-4.9c.59,6.17.98,14.21.98,19.4v21.27c0,6.76.2,11.07.78,15.19h-19.3c.59-4.41.78-8.53.78-15.19v-51.06c0-5.88-.29-11.08-.78-15.29h25.87c.69,4.21,1.47,7.35,3.73,13.82l14.7,42.24,14.6-42.24c2.25-6.57,3.04-9.7,3.63-13.82h33.41c.58,4.12,1.37,7.25,3.62,13.82l14.61,42.24,14.7-42.24c2.25-6.47,3.03-9.61,3.72-13.82h25.87c-.49,4.21-.78,9.41-.78,15.29v51.06Z"/>
</svg>